<?xml version="1.0" encoding="UTF-8"?> <svg xmlns="http://www.w3.org/2000/svg" xmlns:xlink="http://www.w3.org/1999/xlink" viewBox="0 0 295.74 93.27"><defs><linearGradient id="a" x1="100.21" y1="63.07" x2="83.77" y2="20.24" gradientUnits="userSpaceOnUse"><stop offset="0" stop-color="#2b2523"></stop><stop offset="1" stop-color="#d9d9da"></stop></linearGradient><linearGradient id="b" x1="100.08" y1="62.39" x2="84.24" y2="21.13" gradientUnits="userSpaceOnUse"><stop offset="0" stop-color="#9a999a"></stop><stop offset="1" stop-color="#fff"></stop></linearGradient><linearGradient id="c" x1="109.92" y1="44.14" x2="75.91" y2="39.37" xlink:href="#b"></linearGradient><linearGradient id="d" x1="99.31" y1="58.56" x2="86.39" y2="24.92" xlink:href="#a"></linearGradient><linearGradient id="e" x1="99.16" y1="57.9" x2="86.66" y2="25.35" gradientUnits="userSpaceOnUse"><stop offset="0" stop-color="#2b2523"></stop><stop offset="0.48" stop-color="#ededee"></stop><stop offset="1" stop-color="#5e5b5c"></stop></linearGradient><linearGradient id="f" x1="99.1" y1="57.63" x2="86.85" y2="25.74" xlink:href="#a"></linearGradient><linearGradient id="g" x1="98.97" y1="57.08" x2="87.08" y2="26.13" xlink:href="#b"></linearGradient><linearGradient id="h" x1="98.43" y1="54.96" x2="88.26" y2="28.48" gradientUnits="userSpaceOnUse"><stop offset="0" stop-color="#888587"></stop><stop offset="1" stop-color="#fff"></stop></linearGradient><linearGradient id="i" x1="97.15" y1="28.38" x2="89.48" y2="55.12" gradientUnits="userSpaceOnUse"><stop offset="0" stop-color="#c5c4c5"></stop><stop offset="0.12" stop-color="#fff"></stop><stop offset="0.24" stop-color="#2e2725"></stop><stop offset="0.41" stop-color="#fff"></stop><stop offset="0.53" stop-color="#fbfbfc"></stop><stop offset="0.62" stop-color="#767476"></stop><stop offset="0.69" stop-color="#fff"></stop><stop offset="0.78" stop-color="#383231"></stop><stop offset="1" stop-color="#d9d9da"></stop></linearGradient><linearGradient id="j" x1="102.44" y1="52.66" x2="92.14" y2="25.83" gradientUnits="userSpaceOnUse"><stop offset="0" stop-color="#2b2523"></stop><stop offset="0.11" stop-color="#9a999a"></stop><stop offset="0.47" stop-color="#fff"></stop><stop offset="0.74" stop-color="#dcdbde"></stop><stop offset="0.9" stop-color="#8d8c8d"></stop><stop offset="1" stop-color="#2b2523"></stop></linearGradient><linearGradient id="k" x1="86.24" y1="65.96" x2="71.81" y2="28.37" xlink:href="#j"></linearGradient></defs><title>Site Roupeta - VF</title><path d="M67.55,29.36a44.93,44.93,0,0,1-1.13,7,24.87,24.87,0,0,1-2.74,6.79,10.76,10.76,0,0,1-4.84,4.56A18.53,18.53,0,0,1,59.59,53a28.63,28.63,0,0,1-2,9.81H45.07a47.75,47.75,0,0,0,.81-7.63,12.79,12.79,0,0,0-1-5.36c-.55,1.54-1.1,2.93-1.63,4.17s-1.13,2.53-1.8,3.84-1.6,3-2.77,5H25.57a67.22,67.22,0,0,0,5.71-12.15A118.64,118.64,0,0,0,35.8,35.32,90.21,90.21,0,0,0,38,20.63q15,0,22.53-.07a6.51,6.51,0,0,1,3.73,1.08,6.77,6.77,0,0,1,2.46,3.05A11.72,11.72,0,0,1,67.55,29.36Zm-1.47,1A8.36,8.36,0,0,0,64.52,25a4.94,4.94,0,0,0-4.07-2q-7.58.06-20.16.05A71.55,71.55,0,0,1,39,32.72Q38,38,36.43,43.44T32.94,53.6a49.88,49.88,0,0,1-3.84,7.78h9.28a63.24,63.24,0,0,0,3.38-6.48q1.17-2.71,2.56-6.92l1.06,0c.38,0,.76,0,1.15,0a11.79,11.79,0,0,1,2,7.15,36.15,36.15,0,0,1-.65,6.3l4.54,0,4.58,0a19.48,19.48,0,0,0,1.2-6.62,22.85,22.85,0,0,0-1.45-7.63q4.91-.73,7-6.36A35,35,0,0,0,66.08,30.38Zm-9.86,5.2a2.54,2.54,0,0,0-.16.53,4.35,4.35,0,0,1-1.31,2.31,3.29,3.29,0,0,1-2.27.87c-1.45,0-3.38,0-5.8.12.54-1.94,1.07-4.12,1.61-6.54q4.37-.1,6-.1a1.66,1.66,0,0,1,1.39.72A3.54,3.54,0,0,1,56.22,35.58Zm-2.58.11a2.45,2.45,0,0,0,.1-.74c0-.47-.16-.7-.5-.7-1.65,0-3,0-4,0-.22,1-.44,1.79-.65,2.5h3.94a1.32,1.32,0,0,0,.7-.24A1.55,1.55,0,0,0,53.64,35.69Z" style="fill:#c21718"></path><path d="M154.41,20.61q-.1,4.52-.59,8.77a77.26,77.26,0,0,1-1.43,8.43,66.92,66.92,0,0,1-2.48,8.33,60.5,60.5,0,0,1-3.72,8.12,17.33,17.33,0,0,1-5.66,6.14,12.78,12.78,0,0,1-7.1,2.42H117.27q-4.87,0-4.87-4.23a12.62,12.62,0,0,1,1.32-5.07q1.47-3.24,2.81-7c.89-2.51,1.72-5.21,2.5-8.08s1.41-5.81,1.92-8.81a78.25,78.25,0,0,0,1-8.85c2-.05,4.31-.08,7-.09s4.9,0,6.61-.06q-.42,4-.86,7.3t-1.06,6.53c-.42,2.19-.92,4.37-1.52,6.55s-1.3,4.4-2.12,6.66a4.69,4.69,0,0,0-.38,1.11c0,.18.13.27.38.27h4.4a1.67,1.67,0,0,0,.88-.5,3.4,3.4,0,0,0,.92-1.41c.77-2.17,1.43-4.32,2-6.43s1-4.15,1.28-6.12.61-4.13.86-6.46.47-4.8.67-7.4q3.13,0,7.07-.05C150.7,20.62,152.81,20.61,154.41,20.61Zm-1.85,2.64-4.58,0-4.54,0c-.24,3-.52,5.76-.84,8.29s-.79,5.17-1.41,7.9a73.27,73.27,0,0,1-2.46,8.38,6.34,6.34,0,0,1-1.8,2.63,3.89,3.89,0,0,1-2.6,1.16h-4.39c-1.21,0-1.81-.47-1.81-1.42a7.38,7.38,0,0,1,.47-2.06c.81-2.19,1.5-4.36,2.08-6.48s1.06-4.13,1.43-6,.71-3.91,1-6.11.57-4.31.79-6.33c-1.16,0-2.78.07-4.85.1s-3.7.07-4.85.1a70.35,70.35,0,0,1-1,7.79c-.5,2.78-1.12,5.51-1.84,8.21s-1.54,5.33-2.45,7.93-1.84,5-2.8,7.09A10.73,10.73,0,0,0,115,58.49q0,2.9,3.39,2.9h16.15a10.38,10.38,0,0,0,5.74-2,14.15,14.15,0,0,0,4.65-5.08Q152.06,41.29,152.56,23.25Z" style="fill:#c21718"></path><path d="M184.62,41q-2.69,7.34-11,7.42l-3,0-1.72,0h-1.75l-2.36,0a93.65,93.65,0,0,1-7.28,14.32q-2.22,0-5.55-.06t-6.87-.05q2.63-5.19,4.72-10.27t3.74-10.36a96.31,96.31,0,0,0,2.7-10.8,76.4,76.4,0,0,0,1.31-10.68q3.32,0,8.05,0h8.69q3.93,0,6.46,0,6.68.09,6.67,7.71Q187.4,33.38,184.62,41ZM186,29.66a7.6,7.6,0,0,0-1.39-5A4.82,4.82,0,0,0,180.65,23q-7.59,0-20.75,0a63.38,63.38,0,0,1-1.23,9.44,97.27,97.27,0,0,1-2.59,10c-1.05,3.37-2.24,6.66-3.54,9.87s-2.65,6.18-4,8.89c1.11,0,2.55,0,4.34.05s3.23,0,4.32,0c1.12-1.85,2.37-4.18,3.77-7a58.75,58.75,0,0,0,3.11-7.32l3.33,0,3.38,0,3.92,0A9.85,9.85,0,0,0,180,45.63a8.24,8.24,0,0,0,3.2-4.29A40.5,40.5,0,0,0,186,29.66Zm-9.77,5.75a1.9,1.9,0,0,1-.07.28c0,.1-.06.2-.08.3a4,4,0,0,1-1.31,2.28,3.5,3.5,0,0,1-2.33.87c-2.53,0-4.51,0-5.93,0,.08-.25.26-.85.55-1.8s.5-1.7.65-2.28.3-1.36.47-2.34c2.9-.07,5-.11,6.12-.11a1.66,1.66,0,0,1,1.41.72A3.38,3.38,0,0,1,176.21,35.41ZM173.78,35a1.07,1.07,0,0,0-.17-.59.51.51,0,0,0-.44-.26c-1.65,0-3,0-4,0-.2.85-.42,1.67-.67,2.49,1,0,2.4-.05,4.06-.05.56,0,.93-.35,1.11-1.06Z" style="fill:#c21718"></path><path d="M219.47,20.72a110,110,0,0,1-1.16,13.72q-9-.27-13.85-.27c-.08.34-.17.7-.29,1.06s-.22.71-.31,1.05q5.8,0,12.52.1-1.4,5.15-3.56,11H200.37l-.67,1.73,4,0,3.61,0,6.26,0c-1.55,3-2.85,5.41-3.87,7.18s-2.39,4-4.1,6.68l-8.42,0-5.88,0H186l-8.53,0a88.66,88.66,0,0,0,6.71-13.48,112.51,112.51,0,0,0,4.87-15,78,78,0,0,0,2.22-13.65l7.56,0h6.31l7.3,0Q217,20.69,219.47,20.72Zm-1.66,2.47-6.83,0H200l-6.11,0a59,59,0,0,1-1.31,8.65q-1.08,5-2.83,10.48c-1.17,3.63-2.46,7.09-3.9,10.4a68.05,68.05,0,0,1-4.43,8.66c4.46,0,8.19,0,11.19,0h12.73c2.05-3.16,4-6.44,5.76-9.87q-6,.06-13.56.05c.65-1.79,1.32-3.67,2-5.63q4.71,0,12.53,0a68.11,68.11,0,0,0,2.32-7q-5.65,0-12.57-.05,1.09-3.7,1.71-6,7.59,0,13.63.16A74.58,74.58,0,0,0,217.81,23.19Z" style="fill:#c21718"></path><path d="M259.65,20.7c0,.39.06.95.06,1.69a38.14,38.14,0,0,1-2.32,12.16c-1.72-.07-3.57-.1-5.57-.1l-2.39,0c-1,0-1.82,0-2.43,0-.75,2.54-1.62,5-2.59,7.4s-2,4.77-3.23,7.1-2.43,4.64-3.77,7-2.73,4.57-4.16,6.81H218.09c2.13-3.62,4-7,5.61-10s3.06-6.07,4.35-9.1a94.53,94.53,0,0,0,3.36-9q-5.81,0-10.44.31c.38-2.12.7-3.83.94-5.13s.44-2.66.59-4.08a50.66,50.66,0,0,0,.23-5.21l8.39,0c3.32,0,6.62,0,9.9,0h8.36Zm-1.71,2.49q-6,0-16.1,0c-6.7,0-12.08,0-16.11,0a28.41,28.41,0,0,1-.19,3.34c-.12,1-.3,2.07-.52,3.15s-.48,2.34-.76,3.75c1.06-.05,2.79-.08,5.2-.09s4.24,0,5.5-.07a98.78,98.78,0,0,1-3.48,9.85q-1.92,4.65-4.19,9.06t-5.1,9.25h10.56q9.56-15.08,13.15-28.26c1.26,0,2.68,0,4.25-.08S253,33,253.89,33c1.07,0,1.92,0,2.57.05.59-2.16,1-3.75,1.21-4.78a18.11,18.11,0,0,0,.33-3.73c0-.13,0-.34,0-.64S257.94,23.35,257.94,23.19Z" style="fill:#c21718"></path><path d="M280.88,20.6A46.47,46.47,0,0,1,282.14,26q.54,2.94.83,6.22t.3,6.69a74.67,74.67,0,0,1-.46,8.16,59.81,59.81,0,0,1-1.48,8.13,48.41,48.41,0,0,1-2.62,7.67H266.19a25.85,25.85,0,0,1,1.51-4.51l-4.73,0-4.66,0q-3,3.5-3.78,4.56H241.09q4.08-5,7.89-10.54t7-11.22q3.23-5.66,5.59-10.89a67.06,67.06,0,0,0,3.55-9.57Zm-1.25,2.55H267.08a62.38,62.38,0,0,1-3.33,8.68q-2.26,4.92-5.32,10.28c-2.05,3.58-4.17,7-6.39,10.3s-4.41,6.28-6.6,9h8.93a27.76,27.76,0,0,1,2-2.38,23.85,23.85,0,0,0,1.89-2.23q4.51.06,12.55,0a10.69,10.69,0,0,1-.79,2.31,15.08,15.08,0,0,0-.86,2.25h9A37.94,37.94,0,0,0,280.23,55a54.76,54.76,0,0,0,1.21-7,72.66,72.66,0,0,0,.37-7.27,74.7,74.7,0,0,0-.59-9.48A55,55,0,0,0,279.63,23.15Zm-7.05,9.13a55.41,55.41,0,0,1,.73,8.85,37.15,37.15,0,0,1-.89,8.43h-9.33a75.92,75.92,0,0,0,5.25-8.51,58.5,58.5,0,0,0,3.88-8.77ZM270.5,39a67.42,67.42,0,0,1-4.36,8l4.1.05a37.48,37.48,0,0,0,.47-5.19A16.49,16.49,0,0,0,270.5,39Z" style="fill:#c21718"></path><path d="M100.43,61.18a18.15,18.15,0,0,1-7.05,1.58v-8.6A10.9,10.9,0,0,0,98,53.42a11.35,11.35,0,0,0,6.31-6.32,13.42,13.42,0,0,0-5.2-16.3A11.6,11.6,0,0,0,93.38,29V20.73c3.14.34,6.05,2.05,8.65,3.78a21.74,21.74,0,0,1,8.64,11.6,22.54,22.54,0,0,1,1,6.14v1.17a22,22,0,0,1-1.41,7.14A18.79,18.79,0,0,1,100.43,61.18Zm-7.05,1.58A19.37,19.37,0,0,1,84.91,61a21.91,21.91,0,0,1-9.64-30.34C78,25.91,82.58,22,87.82,21a18.68,18.68,0,0,1,5.56-.23V29a10.92,10.92,0,0,0-3.1.3A11.16,11.16,0,0,0,83,35a13.39,13.39,0,0,0,5.66,17.9,12,12,0,0,0,4.69,1.25Z" style="fill:url(#a)"></path><path d="M100.26,60.67a17.78,17.78,0,0,1-6.88,1.51v-8A10.9,10.9,0,0,0,98,53.42a11.35,11.35,0,0,0,6.31-6.32,13.42,13.42,0,0,0-5.2-16.3A11.6,11.6,0,0,0,93.38,29v-7.2a18.93,18.93,0,0,1,8.46,3.12,21.46,21.46,0,0,1,8.47,11.35,21.88,21.88,0,0,1,1,5.95v1.18a20.89,20.89,0,0,1-1.39,7A18.33,18.33,0,0,1,100.26,60.67Zm-6.88,1.51a18.47,18.47,0,0,1-8.21-1.77,21.36,21.36,0,0,1-9.36-29.5A18.12,18.12,0,0,1,88,22a17.4,17.4,0,0,1,5.41-.24V29a10.92,10.92,0,0,0-3.1.3A11.16,11.16,0,0,0,83,35a13.39,13.39,0,0,0,5.66,17.9,12,12,0,0,0,4.69,1.25Z" style="fill:url(#b)"></path><path d="M99.25,57.48a14.69,14.69,0,0,1-5.87,1.14V54.16A10.9,10.9,0,0,0,98,53.42a11.35,11.35,0,0,0,6.31-6.32,13.42,13.42,0,0,0-5.2-16.3A11.6,11.6,0,0,0,93.38,29V24.91a15.76,15.76,0,0,1,7.26,2.55,17.95,17.95,0,0,1,8,14.43v1.18a17.28,17.28,0,0,1-1.22,5.87A15.21,15.21,0,0,1,99.25,57.48Zm-5.87,1.14a15.67,15.67,0,0,1-6.65-1.57A17.84,17.84,0,0,1,79,32.74,15.06,15.06,0,0,1,89,25.2a14.58,14.58,0,0,1,4.39-.29V29a10.92,10.92,0,0,0-3.1.3A11.16,11.16,0,0,0,83,35a13.39,13.39,0,0,0,5.66,17.9,12,12,0,0,0,4.69,1.25Z" style="fill:url(#c)"></path><path d="M99.15,57.15a14.38,14.38,0,0,1-5.77,1.1V54.16A10.9,10.9,0,0,0,98,53.42a11.35,11.35,0,0,0,6.31-6.32,13.42,13.42,0,0,0-5.2-16.3A11.6,11.6,0,0,0,93.38,29V25.24a15.55,15.55,0,0,1,7.14,2.5,17.37,17.37,0,0,1,7,9.34,17.15,17.15,0,0,1,.83,4.78V43a16.82,16.82,0,0,1-1.19,5.76A15,15,0,0,1,99.15,57.15Zm-5.77,1.1A15.2,15.2,0,0,1,86.9,56.7a17.44,17.44,0,0,1-7.52-23.78,14.72,14.72,0,0,1,9.72-7.38,14.52,14.52,0,0,1,4.28-.3V29a10.92,10.92,0,0,0-3.1.3A11.16,11.16,0,0,0,83,35a13.39,13.39,0,0,0,5.66,17.9,12,12,0,0,0,4.69,1.25Z" style="fill:url(#d)"></path><path d="M99,56.64a13.76,13.76,0,0,1-5.6,1V54.16A10.9,10.9,0,0,0,98,53.42a11.35,11.35,0,0,0,6.31-6.32,13.42,13.42,0,0,0-5.2-16.3A11.6,11.6,0,0,0,93.38,29V25.74a14.74,14.74,0,0,1,6.94,2.41A17,17,0,0,1,108,41.8V43a16.21,16.21,0,0,1-1.18,5.56A14.4,14.4,0,0,1,99,56.64Zm-5.6,1a14.84,14.84,0,0,1-6.22-1.51,16.91,16.91,0,0,1-7.29-23A14.26,14.26,0,0,1,89.25,26a14.93,14.93,0,0,1,4.13-.3V29a10.92,10.92,0,0,0-3.1.3A11.16,11.16,0,0,0,83,35a13.39,13.39,0,0,0,5.66,17.9,12,12,0,0,0,4.69,1.25Z" style="fill:url(#e)"></path><path d="M98.87,56.33a13.29,13.29,0,0,1-5.49,1V54.16A10.9,10.9,0,0,0,98,53.42a11.35,11.35,0,0,0,6.31-6.32,13.42,13.42,0,0,0-5.2-16.3A11.6,11.6,0,0,0,93.38,29V26.06a14.41,14.41,0,0,1,6.81,2.33,16.53,16.53,0,0,1,6.74,8.9,15.85,15.85,0,0,1,.79,4.51v1.14a16.15,16.15,0,0,1-1.15,5.48A14.15,14.15,0,0,1,98.87,56.33Zm-5.49,1a14.3,14.3,0,0,1-6.07-1.49,16.54,16.54,0,0,1-7.14-22.47,14,14,0,0,1,9.19-7,13.44,13.44,0,0,1,4-.28V29a10.92,10.92,0,0,0-3.1.3A11.16,11.16,0,0,0,83,35a13.39,13.39,0,0,0,5.66,17.9,12,12,0,0,0,4.69,1.25Z" style="fill:url(#f)"></path><path d="M98.83,56.16a14.06,14.06,0,0,1-5.45,1v-3A10.9,10.9,0,0,0,98,53.42a11.35,11.35,0,0,0,6.31-6.32,13.42,13.42,0,0,0-5.2-16.3A11.6,11.6,0,0,0,93.38,29V26.23a14.16,14.16,0,0,1,6.75,2.31,16.24,16.24,0,0,1,6.67,8.8,15.87,15.87,0,0,1,.77,4.44v1.14a15.75,15.75,0,0,1-1.15,5.41A14,14,0,0,1,98.83,56.16Zm-5.45,1a15,15,0,0,1-6-1.49,16.44,16.44,0,0,1-7-22.21,13.89,13.89,0,0,1,9.06-6.95,13.16,13.16,0,0,1,4-.3V29a10.92,10.92,0,0,0-3.1.3A11.16,11.16,0,0,0,83,35a13.39,13.39,0,0,0,5.66,17.9,12,12,0,0,0,4.69,1.25Z" style="fill:#2b2523"></path><path d="M98.74,55.9a13.4,13.4,0,0,1-5.36,1V54.16A10.9,10.9,0,0,0,98,53.42a11.35,11.35,0,0,0,6.31-6.32,13.42,13.42,0,0,0-5.2-16.3A11.6,11.6,0,0,0,93.38,29V26.49A14.09,14.09,0,0,1,100,28.75a15.93,15.93,0,0,1,6.57,8.65,16.66,16.66,0,0,1,.77,4.36V42.9a15.81,15.81,0,0,1-1.14,5.32A13.71,13.71,0,0,1,98.74,55.9Zm-5.36,1a14.19,14.19,0,0,1-5.88-1.44,16.15,16.15,0,0,1-6.91-21.8,13.61,13.61,0,0,1,8.9-6.84,13.27,13.27,0,0,1,3.89-.3V29a10.92,10.92,0,0,0-3.1.3A11.16,11.16,0,0,0,83,35a13.39,13.39,0,0,0,5.66,17.9,12,12,0,0,0,4.69,1.25Z" style="fill:url(#g)"></path><path d="M98.16,54.09a11.25,11.25,0,0,1-4.78.82v-.75A10.9,10.9,0,0,0,98,53.42a11.35,11.35,0,0,0,6.31-6.32,13.42,13.42,0,0,0-5.2-16.3A11.6,11.6,0,0,0,93.38,29v-.69a12.52,12.52,0,0,1,6,1.94,14.33,14.33,0,0,1,6.48,11.43v1.06a13.36,13.36,0,0,1-1,4.7A11.92,11.92,0,0,1,98.16,54.09Zm-4.78.82a12.4,12.4,0,0,1-5-1.32,14.11,14.11,0,0,1-6-19,11.94,11.94,0,0,1,7.71-6,11.75,11.75,0,0,1,3.32-.3V29a10.92,10.92,0,0,0-3.1.3A11.16,11.16,0,0,0,83,35a13.39,13.39,0,0,0,5.66,17.9,12,12,0,0,0,4.69,1.25Z" style="fill:url(#h)"></path><path d="M98,53.68a11.33,11.33,0,0,1-4.66.78v-.3A10.9,10.9,0,0,0,98,53.42a11.35,11.35,0,0,0,6.31-6.32,13.42,13.42,0,0,0-5.2-16.3A11.6,11.6,0,0,0,93.38,29v-.28a12,12,0,0,1,5.79,1.88,13.79,13.79,0,0,1,6.28,11.06v1a12.57,12.57,0,0,1-1,4.59A11.6,11.6,0,0,1,98,53.68Zm-4.66.78a11.74,11.74,0,0,1-4.81-1.3,13.22,13.22,0,0,1-6.67-7.93,13.47,13.47,0,0,1,.85-10.37,11.31,11.31,0,0,1,10.63-6.17V29a10.92,10.92,0,0,0-3.1.3A11.16,11.16,0,0,0,83,35a13.39,13.39,0,0,0,5.66,17.9,12,12,0,0,0,4.69,1.25Z" style="fill:url(#i)"></path><path d="M98,53.42a10.42,10.42,0,0,1-2,.58,13.1,13.1,0,0,0,3.65-6.27,13.55,13.55,0,0,0-5.17-14.25,12.69,12.69,0,0,0-8-2.4,10.87,10.87,0,0,1,3.91-1.81,11.4,11.4,0,0,1,8.78,1.53,13.42,13.42,0,0,1,5.2,16.3A11.51,11.51,0,0,1,98,53.42Z" style="fill:url(#j)"></path><path d="M80.08,61.31a14.84,14.84,0,0,1-2.37-.75c-4-2.22-6.69-6.08-8.32-11.19-2.35-7.4-1.07-15,4.38-20.44l7.08-4.42a22.43,22.43,0,0,0-2.63,2.22l-.11.11c-4.79,5-6.71,13.39-4.27,21.15a21.79,21.79,0,0,0,9.34,12.07,19.28,19.28,0,0,0,8.64,2.63Z" style="fill:url(#k)"></path><path d="M44.09,12.48a.49.49,0,0,1-.56.54H41.59v4.35c0,.35-.19.52-.56.52s-.56-.17-.56-.52V13H38.53a.49.49,0,0,1-.56-.54c0-.35.19-.53.56-.53h5C43.9,12,44.09,12.13,44.09,12.48Z" style="fill:#c21718"></path><path d="M50.63,15c0,.35-.19.53-.56.53a.69.69,0,0,1-.27-.1l0,0h-.94c1.2,1,1.8,1.67,1.8,1.9a.49.49,0,0,1-.2.4.66.66,0,0,1-.38.14c-.17,0-.62-.34-1.37-1a16.2,16.2,0,0,1-1.38-1.41H45.64v1.92c0,.35-.19.52-.57.52s-.56-.17-.56-.52V12.48a3.39,3.39,0,0,1,.14-.39l.42-.14h5l.41.14q.14.33.15.39Zm-1.13-.65V13H45.64v1.37Z" style="fill:#c21718"></path><path d="M57.54,17.37c0,.35-.18.52-.56.52s-.56-.17-.56-.52V15.45H52.55v1.92c0,.35-.19.52-.56.52s-.56-.17-.56-.52V12.48a1.73,1.73,0,0,1,.15-.39A3.7,3.7,0,0,1,52,12h5a3.7,3.7,0,0,1,.41.14q.13.33.15.39Zm-1.12-3V13H52.55v1.37Z" style="fill:#c21718"></path><path d="M64.46,17.38c0,.41-.19.61-.58.61s-1.47-1.1-3.58-3.29l-.84-.87v3.54c0,.35-.18.52-.56.52s-.56-.17-.56-.52V12.45l.16-.36a3.22,3.22,0,0,1,.4-.14q.33,0,4.11,3.85l.32.33V12.48a.48.48,0,0,1,.55-.53c.39,0,.58.18.58.53Z" style="fill:#c21718"></path><path d="M71.4,17.37a.55.55,0,0,1-.06.19l-.09.2a3.09,3.09,0,0,1-.41.13h-5c-.37,0-.56-.18-.56-.53s.19-.53.56-.53h4.43V15.47H66.19a.75.75,0,0,1-.35.08c-.37,0-.56-.17-.56-.52V12.47c0-.06.06-.19.14-.38l.42-.14h5c.37,0,.56.18.56.53a.49.49,0,0,1-.56.54H66.41v1.39h4.08a.53.53,0,0,1,.35-.12c.37,0,.56.18.56.52Z" style="fill:#c21718"></path><path d="M77.63,12l.41.14c.09.22.14.34.15.38V15c0,.35-.19.52-.56.52a.66.66,0,0,1-.34-.1h-4.1v1.92c0,.35-.18.52-.56.52s-.56-.17-.56-.52V12.48a3.39,3.39,0,0,1,.14-.39l.42-.14Zm-.57,2.44V13H73.19v1.37Z" style="fill:#c21718"></path><path d="M84.78,17.37a.55.55,0,0,1-.06.19l-.09.2a3.09,3.09,0,0,1-.41.13h-5a3.09,3.09,0,0,1-.41-.13,3.3,3.3,0,0,1-.15-.39V12.48a3.39,3.39,0,0,1,.14-.39l.42-.14h5l.41.14q.14.33.15.39Zm-1.13-.54V13H79.79v3.81Z" style="fill:#c21718"></path><path d="M91.72,15c0,.35-.19.53-.56.53a.69.69,0,0,1-.27-.1l0,0h-.94c1.2,1,1.8,1.67,1.8,1.9a.49.49,0,0,1-.2.4.66.66,0,0,1-.38.14c-.17,0-.62-.34-1.37-1a16.2,16.2,0,0,1-1.38-1.41H86.73v1.92c0,.35-.19.52-.57.52s-.56-.17-.56-.52V12.48a3.39,3.39,0,0,1,.14-.39l.42-.14h5l.41.14q.14.33.15.39Zm-1.13-.65V13H86.73v1.37Z" style="fill:#c21718"></path><path d="M98.63,12.48c0,.36-.18.54-.56.54H96.14v4.35c0,.35-.19.52-.57.52s-.56-.17-.56-.52V13H93.08c-.38,0-.56-.18-.56-.54s.18-.53.56-.53h5C98.45,12,98.63,12.13,98.63,12.48Z" style="fill:#c21718"></path><path d="M105.17,17.36c0,.35-.18.53-.56.53h-5a2.66,2.66,0,0,1-.41-.13,3.3,3.3,0,0,1-.15-.39V12.48a2.8,2.8,0,0,1,.13-.39l.43-.14h5c.38,0,.56.18.56.53s-.18.54-.56.54h-4.43v1.37h4.43c.38,0,.56.18.56.53s-.18.53-.56.53h-4.43v1.38h4.43C105,16.83,105.17,17,105.17,17.36Z" style="fill:#c21718"></path><path d="M111.71,17.37a.55.55,0,0,1-.06.19l-.09.2a2.66,2.66,0,0,1-.41.13h-5c-.38,0-.56-.18-.56-.53s.18-.53.56-.53h4.43V15.47h-4.08a.78.78,0,0,1-.35.08c-.38,0-.56-.17-.56-.52V12.47a3.4,3.4,0,0,1,.13-.38l.43-.14h5c.38,0,.56.18.56.53s-.18.54-.56.54h-4.43v1.39h4.08a.55.55,0,0,1,.35-.12c.38,0,.56.18.56.52Z" style="fill:#c21718"></path><path d="M62.82,66.47H25.76c-.12.37-.62.74,6,.87s20-.15,33.43-.12H73a2.43,2.43,0,0,1,1.56.66A2,2,0,0,1,75.17,69a2.09,2.09,0,0,1-.34,1.48,1.3,1.3,0,0,1-.18.23L68.55,78a2.09,2.09,0,0,0-.3.81,2.13,2.13,0,0,0,.33,1.49,1.94,1.94,0,0,0,.66.61,2.8,2.8,0,0,0,1.34.33H89.44l193.87.11v-.74L91,80.47h0L80,80.45a2.57,2.57,0,0,1-1.59-.5,1.94,1.94,0,0,1-.74-1.32,2.08,2.08,0,0,1,.07-.9,1.84,1.84,0,0,1,.23-.52L84.11,70a2.12,2.12,0,0,0,.54-1.38,2,2,0,0,0-.52-1.41,2.39,2.39,0,0,0-1.75-.74H62.82" style="fill:#463e39"></path><path d="M75.65,65.06H19.81c-.12.37-.24.74,9.47.86s29.27-.16,48.82-.12l8,0a2.49,2.49,0,0,1,1.6.66,2,2,0,0,1,.58,1.14,2,2,0,0,1-.34,1.48,2.31,2.31,0,0,1-.18.23L81.5,76.56a2.19,2.19,0,0,0-.3.82,2.14,2.14,0,0,0,.33,1.49,2.23,2.23,0,0,0,.68.61,2.78,2.78,0,0,0,1.36.32H283.31v-.74H104.41L93.24,79a2.64,2.64,0,0,1-1.63-.5,2.05,2.05,0,0,1-.68-2.21,2.24,2.24,0,0,1,.23-.53l6.24-7.22A2.13,2.13,0,0,0,98,67.2a2.1,2.1,0,0,0-.53-1.41,2.45,2.45,0,0,0-1.79-.73h-20" style="fill:#463e39"></path><path d="M12.45,63.71c-.12.37-.24.74,12.73.86s39-.16,65.1-.12l9.08,0a2.64,2.64,0,0,1,1.67.66,2,2,0,0,1,.25,2.62,1.06,1.06,0,0,1-.19.23l-6.5,7.22a2.21,2.21,0,0,0-.31.82,2,2,0,0,0,.35,1.49,2.17,2.17,0,0,0,1.35.84,3.27,3.27,0,0,0,.78.09H283.31V77.7H117.71l-10.88,0a2.78,2.78,0,0,1-1.7-.5l-.23-.2a2,2,0,0,1-.48-2,2,2,0,0,1,.25-.53l6.5-7.22a2.06,2.06,0,0,0,.54-1.08,2,2,0,0,0-.53-1.71,2.6,2.6,0,0,0-1.86-.73H87.73" style="fill:#463e39"></path></svg> 